<?xml version="1.0" encoding="UTF-8" standalone="no"?>
<!-- Created with Inkscape (http://www.inkscape.org/) -->

<svg
   xmlns:dc="http://purl.org/dc/elements/1.1/"
   xmlns:cc="http://creativecommons.org/ns#"
   xmlns:rdf="http://www.w3.org/1999/02/22-rdf-syntax-ns#"
   xmlns:svg="http://www.w3.org/2000/svg"
   xmlns="http://www.w3.org/2000/svg"
   xmlns:xlink="http://www.w3.org/1999/xlink"
   xmlns:sodipodi="http://sodipodi.sourceforge.net/DTD/sodipodi-0.dtd"
   xmlns:inkscape="http://www.inkscape.org/namespaces/inkscape"
   width="516.1731"
   height="324.69028"
   id="svg2"
   version="1.1"
   inkscape:version="0.91 r13725"
   sodipodi:docname="data_cleaning.svg">
  <sodipodi:namedview
     id="base"
     pagecolor="#ffffff"
     bordercolor="#666666"
     borderopacity="1.0"
     inkscape:pageopacity="0.0"
     inkscape:pageshadow="2"
     inkscape:zoom="0.98994949"
     inkscape:cx="32.913403"
     inkscape:cy="129.12451"
     inkscape:document-units="px"
     inkscape:current-layer="layer1"
     showgrid="false"
     inkscape:window-width="1920"
     inkscape:window-height="1027"
     inkscape:window-x="0"
     inkscape:window-y="25"
     inkscape:window-maximized="1"
     fit-margin-left="10"
     fit-margin-top="10"
     fit-margin-right="10"
     fit-margin-bottom="10" />
  <defs
     id="defs4">
    <marker
       style="overflow:visible"
       id="Arrow1Lend"
       refX="0"
       refY="0"
       orient="auto"
       inkscape:stockid="Arrow1Lend">
      <path
         inkscape:connector-curvature="0"
         transform="matrix(-0.8,0,0,-0.8,-10,0)"
         style="fill-rule:evenodd;stroke:#000000;stroke-width:1pt"
         d="M 0,0 5,-5 -12.5,0 5,5 0,0 z"
         id="path3856" />
    </marker>
    <radialGradient
       xlink:href="#linearGradient2265-1"
       r="17.142857"
       inkscape:collect="always"
       id="radialGradient34493"
       gradientUnits="userSpaceOnUse"
       gradientTransform="matrix(1,0,0,0.5,0,20)"
       fy="40"
       fx="23.857143"
       cy="40"
       cx="23.857143" />
    <linearGradient
       inkscape:collect="always"
       id="linearGradient2265-1">
      <stop
         style="stop-color:#000000;stop-opacity:1;"
         offset="0"
         id="stop2267-9" />
      <stop
         style="stop-color:#000000;stop-opacity:0;"
         offset="1"
         id="stop2269-8" />
    </linearGradient>
    <linearGradient
       y2="26.71875"
       y1="26.71875"
       xlink:href="#linearGradient9910-1"
       x2="38.826412"
       x1="9.3030529"
       inkscape:collect="always"
       id="linearGradient34526"
       gradientUnits="userSpaceOnUse"
       gradientTransform="matrix(21.142907,0,0,21.141464,-150.03918,-46.655168)" />
    <linearGradient
       id="linearGradient9910-1">
      <stop
         style="stop-color:#729fcf;stop-opacity:1;"
         offset="0"
         id="stop9912-8" />
      <stop
         style="stop-color:#babdb6;stop-opacity:1;"
         offset="0.31578946"
         id="stop9918-4" />
      <stop
         style="stop-color:#3465a4;stop-opacity:1;"
         offset="1"
         id="stop9914-8" />
    </linearGradient>
    <linearGradient
       y2="467.25879"
       y1="467.25879"
       xlink:href="#linearGradient8109-5"
       x2="747.09595"
       x1="49.136963"
       inkscape:collect="always"
       id="linearGradient34528"
       gradientUnits="userSpaceOnUse"
       gradientTransform="matrix(0.90133683,0,0,1.1093862,-0.0777659,-0.15218394)" />
    <linearGradient
       y2="467.25879"
       y1="467.25879"
       x2="747.09595"
       x1="49.136963"
       id="linearGradient8109-5"
       gradientUnits="userSpaceOnUse"
       gradientTransform="scale(0.9013373,1.1094625)">
      <stop
         style="stop-color:#3465a4;stop-opacity:1;"
         offset="0"
         id="stop8111" />
      <stop
         style="stop-color:#204a87;stop-opacity:1;"
         offset="1"
         id="stop8113" />
    </linearGradient>
    <linearGradient
       y2="56.575912"
       y1="14.004482"
       xlink:href="#linearGradient2682-3"
       x2="37.969398"
       x1="17.160095"
       inkscape:collect="always"
       id="linearGradient34523"
       gradientUnits="userSpaceOnUse"
       gradientTransform="matrix(21.142907,0,0,21.141464,-150.03918,-46.655168)" />
    <linearGradient
       id="linearGradient2682-3">
      <stop
         style="stop-color:#3465a4;stop-opacity:1;"
         offset="0"
         id="stop2684-5" />
      <stop
         style="stop-color:#729fcf;stop-opacity:0;"
         offset="1"
         id="stop2686-6" />
    </linearGradient>
    <linearGradient
       y2="13.284962"
       y1="16.525082"
       xlink:href="#linearGradient6932-4"
       x2="24"
       x1="24"
       inkscape:collect="always"
       id="linearGradient34501"
       gradientUnits="userSpaceOnUse" />
    <linearGradient
       id="linearGradient6932-4">
      <stop
         style="stop-color:#ffffff;stop-opacity:1.0000000;"
         offset="0.0000000"
         id="stop6934-4" />
      <stop
         style="stop-color:#729fcf;stop-opacity:1;"
         offset="1"
         id="stop6936-0" />
    </linearGradient>
    <linearGradient
       y2="30"
       y1="19.5"
       xlink:href="#linearGradient6924-0"
       x2="15.785715"
       x1="16.07143"
       inkscape:collect="always"
       id="linearGradient34519"
       gradientUnits="userSpaceOnUse"
       gradientTransform="matrix(21.142907,0,0,21.141464,-153.05968,9.218795)" />
    <linearGradient
       inkscape:collect="always"
       id="linearGradient6924-0">
      <stop
         style="stop-color:#ffffff;stop-opacity:1;"
         offset="0"
         id="stop6926-8" />
      <stop
         style="stop-color:#ffffff;stop-opacity:0;"
         offset="1"
         id="stop6928-3" />
    </linearGradient>
    <marker
       style="overflow:visible"
       id="Arrow1Lend-8"
       refX="0"
       refY="0"
       orient="auto"
       inkscape:stockid="Arrow1Lend">
      <path
         transform="matrix(-0.8,0,0,-0.8,-10,0)"
         style="fill-rule:evenodd;stroke:#000000;stroke-width:1pt"
         d="M 0,0 5,-5 -12.5,0 5,5 0,0 z"
         id="path3856-6"
         inkscape:connector-curvature="0" />
    </marker>
    <marker
       style="overflow:visible"
       id="Arrow1Lend-1"
       refX="0"
       refY="0"
       orient="auto"
       inkscape:stockid="Arrow1Lend">
      <path
         transform="matrix(-0.8,0,0,-0.8,-10,0)"
         style="fill-rule:evenodd;stroke:#000000;stroke-width:1pt"
         d="M 0,0 5,-5 -12.5,0 5,5 0,0 z"
         id="path3856-8"
         inkscape:connector-curvature="0" />
    </marker>
    <marker
       style="overflow:visible"
       id="Arrow1Lend-5"
       refX="0"
       refY="0"
       orient="auto"
       inkscape:stockid="Arrow1Lend">
      <path
         transform="matrix(-0.8,0,0,-0.8,-10,0)"
         style="fill-rule:evenodd;stroke:#000000;stroke-width:1pt"
         d="M 0,0 5,-5 -12.5,0 5,5 0,0 z"
         id="path3856-5"
         inkscape:connector-curvature="0" />
    </marker>
    <marker
       style="overflow:visible"
       id="Arrow1Lend-4"
       refX="0"
       refY="0"
       orient="auto"
       inkscape:stockid="Arrow1Lend">
      <path
         transform="matrix(-0.8,0,0,-0.8,-10,0)"
         style="fill-rule:evenodd;stroke:#000000;stroke-width:1pt"
         d="M 0,0 5,-5 -12.5,0 5,5 0,0 z"
         id="path3856-3"
         inkscape:connector-curvature="0" />
    </marker>
    <marker
       style="overflow:visible"
       id="Arrow1Lend-45"
       refX="0"
       refY="0"
       orient="auto"
       inkscape:stockid="Arrow1Lend">
      <path
         transform="matrix(-0.8,0,0,-0.8,-10,0)"
         style="fill-rule:evenodd;stroke:#000000;stroke-width:1pt"
         d="M 0,0 5,-5 -12.5,0 5,5 0,0 z"
         id="path3856-1"
         inkscape:connector-curvature="0" />
    </marker>
    <marker
       style="overflow:visible"
       id="Arrow1Lend-14"
       refX="0"
       refY="0"
       orient="auto"
       inkscape:stockid="Arrow1Lend">
      <path
         transform="matrix(-0.8,0,0,-0.8,-10,0)"
         style="fill-rule:evenodd;stroke:#000000;stroke-width:1pt"
         d="M 0,0 5,-5 -12.5,0 5,5 0,0 z"
         id="path3856-0"
         inkscape:connector-curvature="0" />
    </marker>
    <marker
       style="overflow:visible"
       id="Arrow1Lend-15"
       refX="0"
       refY="0"
       orient="auto"
       inkscape:stockid="Arrow1Lend">
      <path
         transform="matrix(-0.8,0,0,-0.8,-10,0)"
         style="fill-rule:evenodd;stroke:#000000;stroke-width:1pt"
         d="M 0,0 5,-5 -12.5,0 5,5 0,0 z"
         id="path3856-00"
         inkscape:connector-curvature="0" />
    </marker>
    <marker
       style="overflow:visible"
       id="Arrow1Lend-9"
       refX="0"
       refY="0"
       orient="auto"
       inkscape:stockid="Arrow1Lend">
      <path
         transform="matrix(-0.8,0,0,-0.8,-10,0)"
         style="fill-rule:evenodd;stroke:#000000;stroke-width:1pt"
         d="M 0,0 5,-5 -12.5,0 5,5 0,0 z"
         id="path3856-04"
         inkscape:connector-curvature="0" />
    </marker>
    <marker
       style="overflow:visible"
       id="Arrow1Lend-0"
       refX="0"
       refY="0"
       orient="auto"
       inkscape:stockid="Arrow1Lend">
      <path
         transform="matrix(-0.8,0,0,-0.8,-10,0)"
         style="fill-rule:evenodd;stroke:#000000;stroke-width:1pt"
         d="M 0,0 5,-5 -12.5,0 5,5 0,0 z"
         id="path3856-2"
         inkscape:connector-curvature="0" />
    </marker>
    <marker
       style="overflow:visible"
       id="Arrow1Lend-02"
       refX="0"
       refY="0"
       orient="auto"
       inkscape:stockid="Arrow1Lend">
      <path
         transform="matrix(-0.8,0,0,-0.8,-10,0)"
         style="fill-rule:evenodd;stroke:#000000;stroke-width:1pt"
         d="M 0,0 5,-5 -12.5,0 5,5 0,0 z"
         id="path3856-68"
         inkscape:connector-curvature="0" />
    </marker>
    <radialGradient
       xlink:href="#linearGradient2265-1-740"
       r="17.142857"
       inkscape:collect="always"
       id="radialGradient34493-555"
       gradientUnits="userSpaceOnUse"
       gradientTransform="matrix(1,0,0,0.5,0,20)"
       fy="40"
       fx="23.857143"
       cy="40"
       cx="23.857143" />
    <linearGradient
       inkscape:collect="always"
       id="linearGradient2265-1-740">
      <stop
         style="stop-color:#000000;stop-opacity:1;"
         offset="0"
         id="stop4356" />
      <stop
         style="stop-color:#000000;stop-opacity:0;"
         offset="1"
         id="stop4358" />
    </linearGradient>
    <linearGradient
       y2="26.71875"
       y1="26.71875"
       xlink:href="#linearGradient9910-1-635"
       x2="38.826412"
       x1="9.3030529"
       inkscape:collect="always"
       id="linearGradient34526-804"
       gradientUnits="userSpaceOnUse"
       gradientTransform="matrix(21.142907,0,0,21.141464,-150.03918,-46.655168)" />
    <linearGradient
       id="linearGradient9910-1-635">
      <stop
         style="stop-color:#a0a0a0;stop-opacity:1;"
         offset="0"
         id="stop4362" />
      <stop
         style="stop-color:#b9b9b9;stop-opacity:1;"
         offset="0.31578946"
         id="stop4364" />
      <stop
         style="stop-color:#6c6c6c;stop-opacity:1;"
         offset="1"
         id="stop4366" />
    </linearGradient>
    <linearGradient
       y2="467.25879"
       y1="467.25879"
       xlink:href="#linearGradient8109-5-593"
       x2="747.09595"
       x1="49.136963"
       inkscape:collect="always"
       id="linearGradient34528-627"
       gradientUnits="userSpaceOnUse"
       gradientTransform="matrix(0.90133683,0,0,1.1093862,-0.0777659,-0.15218394)" />
    <linearGradient
       y2="467.25879"
       y1="467.25879"
       x2="747.09595"
       x1="49.136963"
       id="linearGradient8109-5-593"
       gradientUnits="userSpaceOnUse"
       gradientTransform="scale(0.9013373,1.1094625)">
      <stop
         style="stop-color:#6c6c6c;stop-opacity:1;"
         offset="0"
         id="stop4370" />
      <stop
         style="stop-color:#535353;stop-opacity:1;"
         offset="1"
         id="stop4372" />
    </linearGradient>
    <linearGradient
       y2="56.575912"
       y1="14.004482"
       xlink:href="#linearGradient2682-3-175"
       x2="37.969398"
       x1="17.160095"
       inkscape:collect="always"
       id="linearGradient34523-34"
       gradientUnits="userSpaceOnUse"
       gradientTransform="matrix(21.142907,0,0,21.141464,-150.03918,-46.655168)" />
    <linearGradient
       id="linearGradient2682-3-175">
      <stop
         style="stop-color:#6c6c6c;stop-opacity:1;"
         offset="0"
         id="stop4376" />
      <stop
         style="stop-color:#a0a0a0;stop-opacity:0;"
         offset="1"
         id="stop4378" />
    </linearGradient>
    <linearGradient
       y2="13.284962"
       y1="16.525082"
       xlink:href="#linearGradient6932-4-90"
       x2="24"
       x1="24"
       inkscape:collect="always"
       id="linearGradient34501-625"
       gradientUnits="userSpaceOnUse" />
    <linearGradient
       id="linearGradient6932-4-90">
      <stop
         style="stop-color:#ffffff;stop-opacity:1.0000000;"
         offset="0.0000000"
         id="stop4382" />
      <stop
         style="stop-color:#a0a0a0;stop-opacity:1;"
         offset="1"
         id="stop4384" />
    </linearGradient>
    <linearGradient
       y2="30"
       y1="19.5"
       xlink:href="#linearGradient6924-0-715"
       x2="15.785715"
       x1="16.07143"
       inkscape:collect="always"
       id="linearGradient34519-484"
       gradientUnits="userSpaceOnUse"
       gradientTransform="matrix(21.142907,0,0,21.141464,-153.05968,9.218795)" />
    <linearGradient
       inkscape:collect="always"
       id="linearGradient6924-0-715">
      <stop
         style="stop-color:#ffffff;stop-opacity:1;"
         offset="0"
         id="stop4388" />
      <stop
         style="stop-color:#ffffff;stop-opacity:0;"
         offset="1"
         id="stop4390" />
    </linearGradient>
  </defs>
  <metadata
     id="metadata7">
    <rdf:RDF>
      <cc:Work
         rdf:about="">
        <dc:format>image/svg+xml</dc:format>
        <dc:type
           rdf:resource="http://purl.org/dc/dcmitype/StillImage" />
        <dc:title />
      </cc:Work>
    </rdf:RDF>
  </metadata>
  <g
     transform="translate(-99.78125,-115.0625)"
     id="layer1"
     inkscape:groupmode="layer"
     inkscape:label="Layer 1">
    <rect
       y="125.52071"
       x="110.25612"
       height="28.540085"
       width="113.04116"
       id="rect2985"
       style="fill:#e6e6e6;stroke:#000000;stroke-width:0.93198365;stroke-linecap:round;stroke-miterlimit:4;stroke-opacity:1;stroke-dasharray:none" />
    <text
       sodipodi:linespacing="125%"
       id="text2987"
       y="146.21675"
       x="128.53293"
       style="font-style:normal;font-variant:normal;font-weight:500;font-stretch:normal;font-size:18px;line-height:125%;font-family:'Meta SC Offc';-inkscape-font-specification:'Meta SC Offc Medium';letter-spacing:0px;word-spacing:0px;fill:#000000;fill-opacity:1;stroke:none"
       xml:space="preserve"><tspan
         style="font-style:normal;font-variant:normal;font-weight:500;font-stretch:normal;font-family:'Meta Offc';-inkscape-font-specification:'Meta Offc Medium'"
         y="146.21675"
         x="128.53293"
         id="tspan2989"
         sodipodi:role="line">Raw Data</tspan></text>
    <g
       transform="translate(2,0)"
       id="g3839">
      <rect
         style="opacity:0.49090911;fill:#e6e6e6;stroke:#000000;stroke-width:1.1622051;stroke-linecap:round;stroke-miterlimit:4;stroke-opacity:1;stroke-dasharray:none"
         id="rect2985-7-5-9"
         width="112.81094"
         height="44.472305"
         x="122.53368"
         y="365.52689" />
      <rect
         style="opacity:0.49090911;fill:#e6e6e6;stroke:#000000;stroke-width:1.1622051;stroke-linecap:round;stroke-miterlimit:4;stroke-opacity:1;stroke-dasharray:none"
         id="rect2985-7-5"
         width="112.81094"
         height="44.472305"
         x="114.43213"
         y="355.42535" />
      <rect
         style="fill:#e6e6e6;stroke:#000000;stroke-width:1.1622051;stroke-linecap:round;stroke-miterlimit:4;stroke-opacity:1;stroke-dasharray:none"
         id="rect2985-7"
         width="112.81094"
         height="44.472305"
         x="108.37123"
         y="345.22229" />
      <text
         xml:space="preserve"
         style="font-style:normal;font-variant:normal;font-weight:500;font-stretch:normal;font-size:18px;line-height:125%;font-family:'Meta SC Offc';-inkscape-font-specification:'Meta SC Offc Medium';letter-spacing:0px;word-spacing:0px;fill:#000000;fill-opacity:1;stroke:none"
         x="162.57057"
         y="362.34637"
         id="text2987-5"
         sodipodi:linespacing="125%"><tspan
           sodipodi:role="line"
           x="162.57057"
           y="362.34637"
           style="font-style:normal;font-variant:normal;font-weight:500;font-stretch:normal;font-family:'Meta Offc';-inkscape-font-specification:'Meta Offc Medium';text-align:center;text-anchor:middle"
           id="tspan3015">Cleaned</tspan><tspan
           id="tspan4307"
           sodipodi:role="line"
           x="162.57057"
           y="384.84637"
           style="font-style:normal;font-variant:normal;font-weight:500;font-stretch:normal;font-family:'Meta Offc';-inkscape-font-specification:'Meta Offc Medium';text-align:center;text-anchor:middle">Data</tspan></text>
    </g>
    <path
       inkscape:connector-curvature="0"
       id="path3847"
       d="m 244.67648,380.61074 c 18.28147,0 36.56294,0 54.84442,0"
       style="fill:none;stroke:#000000;stroke-width:1.53760493;stroke-linecap:butt;stroke-linejoin:miter;stroke-miterlimit:4;stroke-opacity:1;stroke-dasharray:none;marker-end:url(#Arrow1Lend)" />
    <g
       id="g35053"
       transform="matrix(0.10631211,0,0,0.10631211,522.48656,327.07063)">
      <path
         transform="matrix(22.385097,0,0,24.339294,-173.63367,-227.68162)"
         style="fill:url(#radialGradient34493-555);fill-opacity:1;fill-rule:nonzero;stroke:none;stroke-width:1;marker:none;visibility:visible;display:block;overflow:visible"
         sodipodi:type="arc"
         sodipodi:ry="8.5714283"
         sodipodi:rx="17.142857"
         sodipodi:cy="40"
         sodipodi:cx="23.857143"
         id="path3366-0"
         d="M 41,40 A 17.142857,8.5714283 0 0 1 23.857143,48.571428 17.142857,8.5714283 0 0 1 6.7142868,40 17.142857,8.5714283 0 0 1 23.857143,31.428572 17.142857,8.5714283 0 0 1 41,40 Z" />
      <path
         style="fill:url(#linearGradient34526-804);fill-opacity:1;fill-rule:nonzero;stroke:url(#linearGradient34528-627);stroke-width:21.1421833;stroke-linecap:butt;stroke-linejoin:miter;stroke-miterlimit:10;stroke-opacity:1;stroke-dasharray:none;stroke-dashoffset:0;marker:none;visibility:visible;display:block;overflow:visible"
         sodipodi:nodetypes="csszssz"
         id="path3068-3"
         d="m 356.06861,141.63599 c -166.17054,0 -301.285978,59.24893 -301.285978,132.13414 0,5.23019 0,483.44936 0,488.89626 0,72.88517 135.115438,132.13414 301.285978,132.13414 166.1705,0 306.66722,-59.24897 306.66722,-132.13414 0,-4.31411 0,-484.58215 0,-488.89626 0,-72.88521 -140.49672,-132.13414 -306.66722,-132.13414 z"
         inkscape:connector-curvature="0" />
      <path
         style="opacity:0.5443038;fill:none;stroke:url(#linearGradient34523-34);stroke-width:21.1421833;stroke-linecap:butt;stroke-linejoin:miter;stroke-miterlimit:10;stroke-opacity:1;stroke-dasharray:none;stroke-dashoffset:0;marker:none;visibility:visible;display:block;overflow:visible"
         sodipodi:nodetypes="csszssz"
         id="path4174-3"
         d="m 356.25045,158.11195 c -154.92886,0 -280.904417,55.24095 -280.904417,123.19572 0,4.87629 0,462.70329 0,467.78168 0,67.95457 125.975557,123.19549 280.904417,123.19549 154.93094,0 285.92181,-55.24092 285.92181,-123.19549 0,-4.02239 0,-463.75953 0,-467.78168 0,-67.95477 -130.99087,-123.19572 -285.92181,-123.19572 z"
         inkscape:connector-curvature="0" />
      <path
         transform="matrix(21.931347,0,0,20.18204,-168.96166,-12.013594)"
         style="fill:#6c6c6c;fill-opacity:1;fill-rule:nonzero;stroke:url(#linearGradient34501-625);stroke-width:1.00492704;stroke-linecap:butt;stroke-linejoin:miter;stroke-miterlimit:10;stroke-opacity:1;stroke-dasharray:none;stroke-dashoffset:0;marker:none;visibility:visible;display:block;overflow:visible"
         sodipodi:type="arc"
         sodipodi:ry="5.5"
         sodipodi:rx="12.857142"
         sodipodi:cy="14.071428"
         sodipodi:cx="24"
         id="path3364-8"
         d="M 36.857142,14.071428 A 12.857142,5.5 0 0 1 24,19.571428 12.857142,5.5 0 0 1 11.142858,14.071428 12.857142,5.5 0 0 1 24,8.5714283 12.857142,5.5 0 0 1 36.857142,14.071428 Z" />
      <path
         style="opacity:0.49367083;fill:url(#linearGradient34519-484);fill-opacity:1;fill-rule:nonzero;stroke:none;stroke-width:1;marker:none;visibility:visible;display:block;overflow:visible"
         sodipodi:nodetypes="ccccccc"
         id="path6922-4"
         d="m 138.41085,370.13352 7.55014,354.87462 96.65268,27.18178 -3.01922,-353.36426 c 0,0 43.79543,0 114.77639,-4.53041 -110.27717,-4.92743 -236.44958,-52.31835 -279.389326,-83.05571 29.958026,44.23175 63.429336,58.89398 63.429336,58.89398 z"
         inkscape:connector-curvature="0" />
      <path
         style="fill:#000000;stroke:#000000;stroke-width:37.39400482;stroke-linecap:butt;stroke-linejoin:miter;stroke-miterlimit:4"
         id="path3010-1"
         d="m 455.15071,729.35357 c 2.83299,-23.59937 1.98399,-27.06013 19.56298,-23.2374 l 4.463,0.39198 c 13.51699,0.61495 31.19898,-2.17385 41.58698,-6.99952 22.36198,-10.37529 35.62198,-27.69809 13.57199,-23.14641 -50.29697,10.37529 -53.75497,-6.65454 -53.75497,-6.65454 53.11097,-78.79757 75.31296,-178.82368 56.14897,-203.308 -52.26997,-66.7844 -142.74792,-35.20357 -144.26192,-34.38363 l -0.482,0.089 c -9.93799,-2.06185 -21.05998,-3.29377 -33.55398,-3.49576 -22.76098,-0.37397 -40.03197,5.96659 -53.13296,15.90291 0,0 -161.40791,-66.49342 -153.89891,83.62224 1.597,31.9338 45.77697,241.63836 98.46994,178.29772 19.25899,-23.1614 37.87098,-42.74505 37.87098,-42.74505 9.24199,6.13957 20.30698,9.27136 31.91198,8.14643 l 0.897,-0.76494 c -0.281,2.8758 -0.157,5.68861 0.359,9.01838 -13.572,15.16595 -9.584,17.82877 -36.72298,23.41438 -27.45698,5.65861 -11.32599,15.73292 -0.797,18.36574 12.76799,3.19278 42.30497,7.71547 62.26796,-20.22261 l -0.795,3.18778 c 5.325,4.25971 4.965,30.61689 5.72,49.4486 0.756,18.8327 2.017,36.40649 5.856,46.76778 3.83899,10.35928 8.36899,37.04745 44.03597,29.40397 29.80898,-6.38756 52.59997,-15.58093 54.67697,-101.10004"
         inkscape:connector-curvature="0" />
      <path
         style="fill:#626262;stroke:none"
         id="path3012-5"
         d="m 534.34066,676.36022 c -50.30197,10.37529 -53.75997,-6.65454 -53.75997,-6.65454 53.11097,-78.80257 75.31296,-178.83068 56.15297,-203.312 -52.26997,-66.7804 -142.75192,-35.19757 -144.26192,-34.37763 l -0.486,0.087 c -9.93799,-2.06285 -21.05998,-3.29177 -33.55998,-3.49576 -22.76098,-0.37297 -40.02597,5.96659 -53.12696,15.90091 0,0 -161.41091,-66.49042 -153.90391,83.62424 1.597,31.9358 45.77597,241.64036 98.47094,178.29972 19.25999,-23.1614 37.86898,-42.74505 37.86898,-42.74505 9.24299,6.13957 20.30798,9.27136 31.90798,8.14643 l 0.901,-0.76494 c -0.28,2.8758 -0.152,5.68861 0.361,9.01838 -13.575,15.16595 -9.586,17.82877 -36.72298,23.41438 -27.45898,5.65861 -11.32799,15.73292 -0.796,18.36574 12.76799,3.19278 42.30697,7.71547 62.26596,-20.22261 l -0.796,3.18778 c 5.319,4.25971 9.054,27.70909 8.428,48.96563 -0.626,21.25754 -1.044,35.85153 3.147,47.25075 4.19099,11.39921 8.36799,37.04745 44.04197,29.40397 29.80898,-6.38756 45.25597,-22.94042 47.40497,-50.55152 1.525,-19.62965 4.976,-16.72785 5.194,-34.27764 l 2.768,-8.30842 c 3.19199,-26.60917 0.507,-35.19358 18.87198,-31.20086 l 4.463,0.39198 c 13.51699,0.61495 31.20798,-2.17385 41.59098,-6.99952 22.35798,-10.37529 35.61798,-27.69809 13.57299,-23.14641 l 0.002,0 z"
         inkscape:connector-curvature="0" />
      <path
         style="fill:none;stroke:#ffffff;stroke-width:12.46466732;stroke-linecap:round;stroke-linejoin:round;stroke-miterlimit:4"
         id="path3014-4"
         d="m 347.81177,691.61317 c -1.385,49.51259 0.348,99.37016 5.193,111.48733 4.84799,12.11716 15.22299,35.68554 50.89997,28.04306 29.80598,-6.38956 40.65097,-18.7547 45.35697,-46.04782 3.466,-20.08062 10.14799,-75.84878 11.00499,-87.27499"
         inkscape:connector-curvature="0" />
      <path
         style="fill:none;stroke:#ffffff;stroke-width:12.46466732;stroke-linecap:round;stroke-linejoin:round;stroke-miterlimit:4"
         id="path3016-1"
         d="m 305.0498,443.40227 c 0,0 -161.52091,-66.01146 -154.01191,84.1032 1.597,31.9358 45.77897,241.64736 98.47294,178.30373 19.25599,-23.16441 36.67098,-41.33216 36.67098,-41.33216"
         inkscape:connector-curvature="0" />
      <path
         style="fill:none;stroke:#ffffff;stroke-width:12.46466732;stroke-linecap:round;stroke-linejoin:round;stroke-miterlimit:4"
         id="path3018-3"
         d="m 392.29474,431.3541 c -5.59099,1.75287 89.84795,-34.8866 144.08692,34.41463 19.15899,24.48231 -3.043,124.51042 -56.15297,203.31499"
         inkscape:connector-curvature="0" />
      <path
         style="fill:none;stroke:#ffffff;stroke-width:12.46466732;stroke-linecap:round;stroke-linejoin:bevel;stroke-miterlimit:4"
         id="path3020-7"
         d="m 480.22769,669.08372 c 0,0 3.461,17.03483 53.76397,6.65255 22.03999,-4.55169 8.77599,12.77312 -13.57699,23.1534 -18.34499,8.51342 -59.47397,10.69527 -60.14597,-1.06892 -1.729,-30.35291 21.64699,-21.13155 19.95999,-28.73703 -1.525,-6.84952 -11.97899,-13.57206 -18.89399,-30.33591 -6.03699,-14.63199 -82.79595,-126.84026 21.28699,-110.17541 3.813,-0.78895 -27.14598,-98.99518 -124.55293,-100.59207 -97.38494,-1.59689 -94.18994,119.75375 -94.18994,119.75375"
         inkscape:connector-curvature="0" />
      <path
         style="fill:none;stroke:#ffffff;stroke-width:12.46466732;stroke-linecap:round;stroke-linejoin:round;stroke-miterlimit:4"
         id="path3022-3"
         d="m 320.54979,679.46401 c -13.577,15.16496 -9.584,17.82777 -36.72298,23.41539 -27.45898,5.65961 -11.32599,15.73191 -0.797,18.36373 12.76799,3.19478 42.30697,7.71747 62.26596,-20.2276 6.078,-8.50842 -0.036,-22.08448 -8.38499,-25.54525 -4.034,-1.67088 -9.428,-3.76474 -16.36099,3.99373 l 0,0 z"
         inkscape:connector-curvature="0" />
      <path
         style="fill:none;stroke:#ffffff;stroke-width:12.46466732;stroke-linecap:round;stroke-linejoin:round;stroke-miterlimit:4"
         id="path3024-5"
         d="m 319.66079,679.19903 c -1.368,-8.91639 2.93,-19.52666 7.53599,-31.9398 6.922,-18.62472 22.89299,-37.25244 10.117,-96.33237 -9.523,-44.02597 -73.39596,-9.16237 -73.43596,-3.19278 -0.039,5.96759 2.889,30.25792 -1.067,58.54397 -5.162,36.91046 23.48799,68.12731 56.47897,64.93353"
         inkscape:connector-curvature="0" />
      <path
         style="fill:#ffffff;stroke:#ffffff;stroke-width:4.15485573;stroke-linecap:butt;stroke-linejoin:miter;stroke-miterlimit:4"
         id="path3026-8"
         d="m 304.4628,546.83914 c -0.288,2.03886 3.73299,7.47949 8.97599,8.20644 5.234,0.72995 9.714,-3.52176 9.998,-5.55862 0.28399,-2.03886 -3.732,-4.2847 -8.977,-5.01465 -5.237,-0.73095 -9.71899,0.33297 -9.99599,2.36683 l -10e-4,0 z"
         inkscape:connector-curvature="0" />
      <path
         style="fill:#ffffff;stroke:#ffffff;stroke-width:2.07742786;stroke-linecap:butt;stroke-linejoin:miter;stroke-miterlimit:4"
         id="path3028-5"
         d="m 463.8867,542.68243 c 0.284,2.03886 -3.732,7.47948 -8.97599,8.20643 -5.238,0.72995 -9.718,-3.52175 -10.005,-5.55861 -0.277,-2.03886 3.74,-4.28471 8.979,-5.01466 5.23899,-0.72995 9.71799,0.33298 10.00199,2.36784 l 0,-0.001 z"
         inkscape:connector-curvature="0" />
      <path
         style="fill:none;stroke:#ffffff;stroke-width:12.46466732;stroke-linecap:round;stroke-linejoin:round;stroke-miterlimit:4"
         id="path3030-6"
         d="m 482.62169,528.5724 c 0.863,15.9929 -3.445,26.88615 -3.988,43.91098 -0.804,24.74629 11.79899,53.07034 -7.19099,81.42939"
         inkscape:connector-curvature="0" />
      <path
         style="fill:none;stroke:#ffffff;stroke-width:2.99989581;stroke-linecap:round;stroke-linejoin:round;stroke-miterlimit:4"
         id="path3032-9"
         d=""
         inkscape:connector-curvature="0" />
      <rect
         y="115.85568"
         x="-64.879845"
         width="850"
         style="fill:none;stroke:none"
         id="rect2300"
         height="850" />
      <g
         transform="matrix(0.2964182,0,0,0.2964182,-883.78418,422.24715)"
         style="fill-rule:nonzero;stroke:#000000;stroke-miterlimit:4"
         id="orginal-8" />
    </g>
    <text
       sodipodi:linespacing="177%"
       id="text18175"
       y="360.17279"
       x="325.45908"
       style="font-style:normal;font-variant:normal;font-weight:normal;font-stretch:normal;font-size:18px;line-height:176.99999809%;font-family:FontAwesome;-inkscape-font-specification:FontAwesome;letter-spacing:0px;word-spacing:0px;fill:#000000;fill-opacity:1;stroke:none"
       xml:space="preserve"><tspan
         style="font-style:normal;font-variant:normal;font-weight:500;font-stretch:normal;font-size:14px;line-height:176.99999809%;font-family:'Meta Offc';-inkscape-font-specification:'Meta Offc Medium'"
         y="360.17279"
         x="325.45908"
         id="tspan18177"
         sodipodi:role="line">For each dataset</tspan><tspan
         id="tspan18181"
         style="font-style:normal;font-variant:normal;font-weight:500;font-stretch:normal;font-size:14px;line-height:176.99999809%;font-family:'Meta Offc';-inkscape-font-specification:'Meta Offc Medium'"
         y="384.95279"
         x="325.45908"
         sodipodi:role="line">merge datasets</tspan><tspan
         id="tspan18183"
         style="font-style:normal;font-variant:normal;font-weight:500;font-stretch:normal;font-size:14px;line-height:176.99999809%;font-family:'Meta Offc';-inkscape-font-specification:'Meta Offc Medium'"
         y="409.73279"
         x="325.45908"
         sodipodi:role="line">remove duplicates</tspan><tspan
         style="font-style:normal;font-variant:normal;font-weight:500;font-stretch:normal;font-size:14px;line-height:176.99999809%;font-family:'Meta Offc';-inkscape-font-specification:'Meta Offc Medium'"
         id="tspan18179"
         y="434.51279"
         x="325.45908"
         sodipodi:role="line" /></text>
    <path
       transform="translate(8.1115075,-9.1792511)"
       d="m 311.31638,364.51144 a 0.82074893,0.82074893 0 0 1 -0.82074,0.82075 0.82074893,0.82074893 0 0 1 -0.82075,-0.82075 0.82074893,0.82074893 0 0 1 0.82075,-0.82074 0.82074893,0.82074893 0 0 1 0.82074,0.82074 z"
       sodipodi:ry="0.82074893"
       sodipodi:rx="0.82074893"
       sodipodi:cy="364.51144"
       sodipodi:cx="310.49564"
       id="path18185"
       style="fill:#e6e6e6;fill-opacity:0.66346154;stroke:#000000;stroke-width:2;stroke-linecap:round;stroke-miterlimit:4;stroke-opacity:1;stroke-dasharray:none"
       sodipodi:type="arc" />
    <path
       transform="translate(8.1115075,16.422165)"
       d="m 311.31638,364.51144 a 0.82074893,0.82074893 0 0 1 -0.82074,0.82075 0.82074893,0.82074893 0 0 1 -0.82075,-0.82075 0.82074893,0.82074893 0 0 1 0.82075,-0.82074 0.82074893,0.82074893 0 0 1 0.82074,0.82074 z"
       sodipodi:ry="0.82074893"
       sodipodi:rx="0.82074893"
       sodipodi:cy="364.51144"
       sodipodi:cx="310.49564"
       id="path18185-0"
       style="fill:#e6e6e6;fill-opacity:0.66346154;stroke:#000000;stroke-width:2;stroke-linecap:round;stroke-miterlimit:4;stroke-opacity:1;stroke-dasharray:none"
       sodipodi:type="arc" />
    <path
       transform="translate(8.1115075,40.886451)"
       d="m 311.31638,364.51144 a 0.82074893,0.82074893 0 0 1 -0.82074,0.82075 0.82074893,0.82074893 0 0 1 -0.82075,-0.82075 0.82074893,0.82074893 0 0 1 0.82075,-0.82074 0.82074893,0.82074893 0 0 1 0.82074,0.82074 z"
       sodipodi:ry="0.82074893"
       sodipodi:rx="0.82074893"
       sodipodi:cy="364.51144"
       sodipodi:cx="310.49564"
       id="path18185-1"
       style="fill:#e6e6e6;fill-opacity:0.66346154;stroke:#000000;stroke-width:2;stroke-linecap:round;stroke-miterlimit:4;stroke-opacity:1;stroke-dasharray:none"
       sodipodi:type="arc" />
    <rect
       y="342.50763"
       x="310.03778"
       height="78.423347"
       width="147.21014"
       id="rect2985-1"
       style="fill:none;stroke:#000000;stroke-width:1.76300645;stroke-linecap:round;stroke-miterlimit:4;stroke-opacity:1;stroke-dasharray:none" />
    <path
       sodipodi:nodetypes="cc"
       inkscape:connector-curvature="0"
       id="path3847-8"
       d="m 164.28572,159.86671 c 0,14.76624 0.71429,157.36754 0.71429,172.13379"
       style="fill:none;stroke:#000000;stroke-width:1.39109313;stroke-linecap:butt;stroke-linejoin:miter;stroke-miterlimit:4;stroke-opacity:1;stroke-dasharray:none;marker-end:url(#Arrow1Lend)" />
    <text
       sodipodi:linespacing="140%"
       id="text18473"
       y="181.21931"
       x="212.42857"
       style="font-style:normal;font-variant:normal;font-weight:normal;font-stretch:normal;font-size:18px;line-height:139.99999762%;font-family:FontAwesome;-inkscape-font-specification:FontAwesome;letter-spacing:0px;word-spacing:0px;fill:#000000;fill-opacity:1;stroke:none"
       xml:space="preserve"><tspan
         style="font-style:normal;font-variant:normal;font-weight:500;font-stretch:normal;font-size:14px;line-height:139.99999762%;font-family:'Meta Offc';-inkscape-font-specification:'Meta Offc Medium'"
         y="181.21931"
         x="212.42857"
         id="tspan18475"
         sodipodi:role="line">Adjust coordinates</tspan><tspan
         style="font-style:normal;font-variant:normal;font-weight:500;font-stretch:normal;font-size:14px;line-height:139.99999762%;font-family:'Meta Offc';-inkscape-font-specification:'Meta Offc Medium'"
         id="tspan18477"
         y="200.81932"
         x="212.42857"
         sodipodi:role="line">Adjust structure</tspan><tspan
         id="tspan18485"
         style="font-style:normal;font-variant:normal;font-weight:500;font-stretch:normal;font-size:14px;line-height:139.99999762%;font-family:'Meta Offc';-inkscape-font-specification:'Meta Offc Medium'"
         y="220.41931"
         x="212.42857"
         sodipodi:role="line">Assign substanceID</tspan><tspan
         id="tspan18489"
         style="font-style:normal;font-variant:normal;font-weight:500;font-stretch:normal;font-size:14px;line-height:139.99999762%;font-family:'Meta Offc';-inkscape-font-specification:'Meta Offc Medium'"
         y="240.01932"
         x="212.42857"
         sodipodi:role="line">Assign siteID and sampleID</tspan><tspan
         id="tspan18487"
         style="font-style:normal;font-variant:normal;font-weight:500;font-stretch:normal;font-size:14px;line-height:139.99999762%;font-family:'Meta Offc';-inkscape-font-specification:'Meta Offc Medium'"
         y="259.61932"
         x="212.42857"
         sodipodi:role="line">convert units</tspan><tspan
         id="tspan18491"
         style="font-style:normal;font-variant:normal;font-weight:500;font-stretch:normal;font-size:14px;line-height:139.99999762%;font-family:'Meta Offc';-inkscape-font-specification:'Meta Offc Medium'"
         y="279.2193"
         x="212.42857"
         sodipodi:role="line">adjust names</tspan><tspan
         id="tspan18481"
         style="font-style:normal;font-variant:normal;font-weight:500;font-stretch:normal;font-size:14px;line-height:139.99999762%;font-family:'Meta Offc';-inkscape-font-specification:'Meta Offc Medium'"
         y="298.81931"
         x="212.42857"
         sodipodi:role="line">validity checks</tspan><tspan
         id="tspan18483"
         style="font-style:normal;font-variant:normal;font-weight:500;font-stretch:normal;font-size:14px;line-height:139.99999762%;font-family:'Meta Offc';-inkscape-font-specification:'Meta Offc Medium'"
         y="318.41931"
         x="212.42857"
         sodipodi:role="line" /><tspan
         style="font-style:normal;font-variant:normal;font-weight:500;font-stretch:normal;font-size:14px;line-height:139.99999762%;font-family:'Meta Offc';-inkscape-font-specification:'Meta Offc Medium'"
         id="tspan18479"
         y="338.01932"
         x="212.42857"
         sodipodi:role="line" /></text>
    <path
       inkscape:connector-curvature="0"
       id="path3847-2"
       d="m 463.86351,383.07647 c 18.28146,0 36.56293,0 54.84441,0"
       style="fill:none;stroke:#000000;stroke-width:1.53760493;stroke-linecap:butt;stroke-linejoin:miter;stroke-miterlimit:4;stroke-opacity:1;stroke-dasharray:none;marker-end:url(#Arrow1Lend)" />
    <path
       inkscape:connector-curvature="0"
       id="path3847-3"
       d="m 208.05922,176.24328 c -8.73319,0 -17.46637,0 -26.19956,0"
       style="fill:none;stroke:#000000;stroke-width:0.6678232;stroke-linecap:butt;stroke-linejoin:miter;stroke-miterlimit:4;stroke-opacity:1;stroke-dasharray:none;marker-end:url(#Arrow1Lend)" />
    <path
       inkscape:connector-curvature="0"
       id="path3847-3-8"
       d="m 208.05922,196.8645 c -8.73319,0 -17.46637,0 -26.19956,0"
       style="fill:none;stroke:#000000;stroke-width:0.6678232;stroke-linecap:butt;stroke-linejoin:miter;stroke-miterlimit:4;stroke-opacity:1;stroke-dasharray:none;marker-end:url(#Arrow1Lend)" />
    <path
       inkscape:connector-curvature="0"
       id="path3847-3-4"
       d="m 208.05922,215.55232 c -8.73319,0 -17.46637,0 -26.19956,0"
       style="fill:none;stroke:#000000;stroke-width:0.6678232;stroke-linecap:butt;stroke-linejoin:miter;stroke-miterlimit:4;stroke-opacity:1;stroke-dasharray:none;marker-end:url(#Arrow1Lend)" />
    <path
       inkscape:connector-curvature="0"
       id="path3847-3-2"
       d="m 208.05922,236.24015 c -8.73319,0 -17.46637,0 -26.19956,0"
       style="fill:none;stroke:#000000;stroke-width:0.6678232;stroke-linecap:butt;stroke-linejoin:miter;stroke-miterlimit:4;stroke-opacity:1;stroke-dasharray:none;marker-end:url(#Arrow1Lend)" />
    <path
       inkscape:connector-curvature="0"
       id="path3847-3-0"
       d="m 208.05922,256.4432 c -8.73319,0 -17.46637,0 -26.19956,0"
       style="fill:none;stroke:#000000;stroke-width:0.6678232;stroke-linecap:butt;stroke-linejoin:miter;stroke-miterlimit:4;stroke-opacity:1;stroke-dasharray:none;marker-end:url(#Arrow1Lend)" />
    <path
       inkscape:connector-curvature="0"
       id="path3847-3-3"
       d="m 208.05922,275.15132 c -8.73319,0 -17.46637,0 -26.19956,0"
       style="fill:none;stroke:#000000;stroke-width:0.6678232;stroke-linecap:butt;stroke-linejoin:miter;stroke-miterlimit:4;stroke-opacity:1;stroke-dasharray:none;marker-end:url(#Arrow1Lend)" />
    <path
       inkscape:connector-curvature="0"
       id="path3847-3-1"
       d="m 208.05922,292.80868 c -8.73319,0 -17.46637,0 -26.19956,0"
       style="fill:none;stroke:#000000;stroke-width:0.6678232;stroke-linecap:butt;stroke-linejoin:miter;stroke-miterlimit:4;stroke-opacity:1;stroke-dasharray:none;marker-end:url(#Arrow1Lend)" />
  </g>
</svg>
